<mxfile host="app.diagrams.net" agent="Mozilla/5.0 (Windows NT 10.0; Win64; x64) AppleWebKit/537.36 (KHTML, like Gecko) Chrome/131.0.0.0 Safari/537.36" version="25.0.1">
  <diagram name="PÃ¡gina-1" id="rRv8qzeqI0j8VLSiZbCX">
    <mxGraphModel dx="6653" dy="2541" grid="1" gridSize="10" guides="1" tooltips="1" connect="1" arrows="1" fold="1" page="1" pageScale="1" pageWidth="827" pageHeight="1169" math="0" shadow="0">
      <root>
        <mxCell id="0" />
        <mxCell id="1" parent="0" />
        <mxCell id="hHe68IUiqHdVVkdZ2fqz-5" value="" style="shape=folder;fontStyle=1;spacingTop=10;tabWidth=110;tabHeight=40;tabPosition=left;html=1;whiteSpace=wrap;" parent="1" vertex="1">
          <mxGeometry x="-2409" y="-306" width="280" height="357.5" as="geometry" />
        </mxCell>
        <mxCell id="hHe68IUiqHdVVkdZ2fqz-6" value="&lt;p style=&quot;margin: 4px 0px 0px; text-align: center; line-height: 90%;&quot;&gt;&lt;b&gt;&amp;lt;&amp;lt;interface&amp;gt;&amp;gt;&lt;/b&gt;&lt;/p&gt;&lt;p style=&quot;margin: 4px 0px 0px; text-align: center; line-height: 90%;&quot;&gt;&lt;b&gt;ILog&lt;/b&gt;&lt;/p&gt;&lt;hr size=&quot;1&quot; style=&quot;border-style: solid; line-height: 140%;&quot;&gt;&lt;p style=&quot;margin: 0px 0px 0px 4px; line-height: 10%;&quot;&gt;&amp;nbsp;&lt;/p&gt;&lt;hr size=&quot;1&quot; style=&quot;border-style: solid; line-height: 140%;&quot;&gt;&lt;p style=&quot;margin: 0px 0px 0px 4px; line-height: 140%;&quot;&gt;+&amp;nbsp;&lt;span style=&quot;background-color: initial;&quot;&gt;salvarLog(String mensagem):&lt;/span&gt;&lt;span style=&quot;background-color: initial;&quot;&gt;void&lt;/span&gt;&lt;/p&gt;&lt;p style=&quot;margin: 0px 0px 0px 4px; line-height: 140%;&quot;&gt;+ recuperarLogs():&amp;nbsp;&lt;span style=&quot;background-color: initial;&quot;&gt;List&amp;lt;String&amp;gt;&lt;/span&gt;&lt;/p&gt;&lt;div&gt;&lt;span style=&quot;background-color: initial;&quot;&gt;&lt;br&gt;&lt;/span&gt;&lt;/div&gt;" style="verticalAlign=top;align=left;overflow=fill;html=1;whiteSpace=wrap;spacingTop=4;" parent="1" vertex="1">
          <mxGeometry x="-2379" y="-228.5" width="230" height="104" as="geometry" />
        </mxCell>
        <mxCell id="hHe68IUiqHdVVkdZ2fqz-7" value="&lt;p style=&quot;margin: 4px 0px 0px; text-align: center; line-height: 140%;&quot;&gt;&lt;b&gt;LogDAOImpl&lt;/b&gt;&lt;/p&gt;&lt;hr size=&quot;1&quot; style=&quot;border-style: solid; line-height: 140%;&quot;&gt;&lt;p style=&quot;margin: 0px 0px 0px 4px; line-height: 140%;&quot;&gt;&lt;span style=&quot;font-size: 12px;&quot;&gt;-&lt;/span&gt;&lt;span style=&quot;background-color: initial;&quot;&gt;&amp;nbsp;&lt;u&gt;LOG_FILE:&lt;/u&gt;&amp;nbsp;&lt;/span&gt;&lt;span style=&quot;background-color: initial;&quot;&gt;String&amp;nbsp;&lt;/span&gt;&lt;span style=&quot;background-color: initial;&quot;&gt;= &quot;logs.txt&quot;&lt;/span&gt;&lt;span style=&quot;font-size: 12px;&quot;&gt;&lt;br&gt;&lt;/span&gt;&lt;/p&gt;&lt;hr size=&quot;1&quot; style=&quot;border-style: solid; line-height: 140%;&quot;&gt;&lt;p style=&quot;margin: 0px 0px 0px 4px; line-height: 140%;&quot;&gt;+&amp;nbsp;&lt;span style=&quot;background-color: initial;&quot;&gt;salvarLog(String mensagem):&amp;nbsp;&lt;/span&gt;&lt;span style=&quot;background-color: initial;&quot;&gt;void&lt;/span&gt;&lt;span style=&quot;background-color: initial;&quot;&gt;&amp;nbsp;&lt;/span&gt;&lt;/p&gt;&lt;p style=&quot;margin: 0px 0px 0px 4px; line-height: 140%;&quot;&gt;&lt;span style=&quot;background-color: initial;&quot;&gt;+&amp;nbsp;&lt;/span&gt;&lt;span style=&quot;background-color: initial;&quot;&gt;recuperarLogs():&amp;nbsp;&lt;/span&gt;&lt;span style=&quot;background-color: initial;&quot;&gt;List&amp;lt;String&amp;gt;&lt;/span&gt;&lt;/p&gt;&lt;div&gt;&lt;span style=&quot;background-color: initial;&quot;&gt;&lt;br&gt;&lt;/span&gt;&lt;/div&gt;" style="verticalAlign=top;align=left;overflow=fill;html=1;whiteSpace=wrap;spacingTop=4;" parent="1" vertex="1">
          <mxGeometry x="-2374" y="-85.5" width="220" height="110" as="geometry" />
        </mxCell>
        <mxCell id="hHe68IUiqHdVVkdZ2fqz-8" value="" style="shape=folder;fontStyle=1;spacingTop=10;tabWidth=340;tabHeight=70;tabPosition=left;html=1;whiteSpace=wrap;" parent="1" vertex="1">
          <mxGeometry x="-4079" y="-610" width="1570" height="1300" as="geometry" />
        </mxCell>
        <mxCell id="hHe68IUiqHdVVkdZ2fqz-9" style="edgeStyle=orthogonalEdgeStyle;rounded=0;orthogonalLoop=1;jettySize=auto;html=1;exitX=1;exitY=0.25;exitDx=0;exitDy=0;entryX=0;entryY=0.5;entryDx=0;entryDy=0;" parent="1" source="hHe68IUiqHdVVkdZ2fqz-12" target="hHe68IUiqHdVVkdZ2fqz-39" edge="1">
          <mxGeometry relative="1" as="geometry">
            <mxPoint x="-2909" y="-78.16666666666652" as="targetPoint" />
          </mxGeometry>
        </mxCell>
        <mxCell id="hHe68IUiqHdVVkdZ2fqz-10" value="1..*" style="edgeLabel;html=1;align=center;verticalAlign=middle;resizable=0;points=[];" parent="hHe68IUiqHdVVkdZ2fqz-9" vertex="1" connectable="0">
          <mxGeometry x="-0.7511" y="-3" relative="1" as="geometry">
            <mxPoint x="-8" y="13" as="offset" />
          </mxGeometry>
        </mxCell>
        <mxCell id="hHe68IUiqHdVVkdZ2fqz-11" value="1..*" style="edgeLabel;html=1;align=center;verticalAlign=middle;resizable=0;points=[];" parent="hHe68IUiqHdVVkdZ2fqz-9" vertex="1" connectable="0">
          <mxGeometry x="0.6684" relative="1" as="geometry">
            <mxPoint x="17" y="-12" as="offset" />
          </mxGeometry>
        </mxCell>
        <mxCell id="hHe68IUiqHdVVkdZ2fqz-12" value="&lt;p style=&quot;margin: 4px 0px 0px; text-align: center; line-height: 140%;&quot;&gt;&lt;span style=&quot;white-space: pre;&quot;&gt;&#x9;&lt;/span&gt;Voo&lt;br&gt;&lt;/p&gt;&lt;hr size=&quot;1&quot; style=&quot;border-style: solid; line-height: 140%;&quot;&gt;&lt;p style=&quot;margin: 0px 0px 0px 4px; line-height: 140%;&quot;&gt;- origem: Aeroporto&lt;br&gt;- destino: Aeroporto&lt;/p&gt;&lt;p style=&quot;margin: 0px 0px 0px 4px; line-height: 140%;&quot;&gt;- dataHoraVoo: LocalDateTime&lt;/p&gt;&lt;p style=&quot;margin: 0px 0px 0px 4px; line-height: 140%;&quot;&gt;- codigoVoo: String&lt;br&gt;- companhia: CompanhiaAerea&lt;/p&gt;&lt;p style=&quot;margin: 0px 0px 0px 4px; line-height: 140%;&quot;&gt;- tarifaBasica: double&lt;/p&gt;&lt;p style=&quot;margin: 0px 0px 0px 4px; line-height: 140%;&quot;&gt;- tarifaBusiness: double&lt;/p&gt;&lt;p style=&quot;margin: 0px 0px 0px 4px; line-height: 140%;&quot;&gt;- tarifaPremium: double&lt;/p&gt;&lt;p style=&quot;margin: 0px 0px 0px 4px; line-height: 140%;&quot;&gt;- moeda: String&lt;/p&gt;&lt;p style=&quot;margin: 0px 0px 0px 4px; line-height: 140%;&quot;&gt;-&amp;nbsp;&lt;span style=&quot;background-color: initial;&quot;&gt;assentos:&amp;nbsp;&lt;/span&gt;&lt;span style=&quot;background-color: initial;&quot;&gt;List&amp;lt;Assento&amp;gt;&lt;/span&gt;&lt;span style=&quot;background-color: initial;&quot;&gt;&amp;nbsp;&lt;/span&gt;&lt;/p&gt;&lt;p style=&quot;margin: 0px 0px 0px 4px; line-height: 140%;&quot;&gt;- aeronave:&amp;nbsp;&lt;span style=&quot;background-color: initial;&quot;&gt;Aeronave&lt;/span&gt;&lt;span style=&quot;background-color: initial;&quot;&gt;&amp;nbsp;&lt;/span&gt;&lt;/p&gt;&lt;p style=&quot;margin: 0px 0px 0px 4px; line-height: 140%;&quot;&gt;- cancelado:&amp;nbsp;&lt;span style=&quot;background-color: initial;&quot;&gt;boolean&lt;/span&gt;&lt;/p&gt;&lt;p style=&quot;margin: 0px 0px 0px 4px; line-height: 140%;&quot;&gt;- passageiros:&amp;nbsp;&lt;span style=&quot;background-color: initial;&quot;&gt;List&amp;lt;PassageiroEmbarque&amp;gt;&lt;/span&gt;&lt;span style=&quot;background-color: initial;&quot;&gt;&amp;nbsp;&lt;/span&gt;&lt;/p&gt;&lt;hr size=&quot;1&quot; style=&quot;border-style: solid; line-height: 140%;&quot;&gt;&lt;p style=&quot;margin: 0px 0px 0px 4px; line-height: 140%;&quot;&gt;+&amp;nbsp;&lt;span style=&quot;background-color: initial; font-size: 12px;&quot;&gt;Voo (origem:&amp;nbsp;&lt;/span&gt;&lt;span style=&quot;background-color: initial;&quot;&gt;Aeroporto&lt;/span&gt;&lt;span style=&quot;background-color: initial;&quot;&gt;, destino:&amp;nbsp;&lt;/span&gt;&lt;span style=&quot;background-color: initial;&quot;&gt;Aeroporto,&lt;/span&gt;&lt;span style=&quot;background-color: initial;&quot;&gt;&amp;nbsp;dataHoraVoo:&amp;nbsp;&lt;/span&gt;&lt;span style=&quot;background-color: initial;&quot;&gt;LocalDateTime&lt;/span&gt;&lt;span style=&quot;background-color: initial;&quot;&gt;, codigoVoo:&amp;nbsp;&lt;/span&gt;&lt;span style=&quot;background-color: initial;&quot;&gt;String&lt;/span&gt;&lt;span style=&quot;background-color: initial;&quot;&gt;,&amp;nbsp;&lt;/span&gt;&lt;span style=&quot;background-color: initial;&quot;&gt;companhia:&amp;nbsp;&lt;/span&gt;&lt;span style=&quot;background-color: initial;&quot;&gt;CompanhiaAerea&lt;/span&gt;&lt;span style=&quot;background-color: initial;&quot;&gt;,&amp;nbsp;&lt;/span&gt;&lt;span style=&quot;background-color: initial;&quot;&gt;aeronave:&amp;nbsp;&lt;/span&gt;&lt;span style=&quot;background-color: initial;&quot;&gt;Aeronave,&lt;/span&gt;&lt;span style=&quot;background-color: initial;&quot;&gt;&amp;nbsp;&lt;/span&gt;&lt;/p&gt;&lt;p style=&quot;margin: 0px 0px 0px 4px; line-height: 140%;&quot;&gt;&lt;span style=&quot;background-color: initial;&quot;&gt;tarifaBasica:&amp;nbsp;&lt;/span&gt;&lt;span style=&quot;background-color: initial;&quot;&gt;double&lt;/span&gt;&lt;span style=&quot;background-color: initial;&quot;&gt;, tarifaBusiness:&amp;nbsp;&lt;/span&gt;&lt;span style=&quot;background-color: initial;&quot;&gt;double&lt;/span&gt;&lt;span style=&quot;background-color: initial;&quot;&gt;, tarifaPremium:&amp;nbsp;&lt;/span&gt;&lt;span style=&quot;background-color: initial;&quot;&gt;double&lt;/span&gt;&lt;span style=&quot;background-color: initial;&quot;&gt;, moeda:&amp;nbsp;&lt;/span&gt;&lt;span style=&quot;background-color: initial;&quot;&gt;String&lt;/span&gt;&lt;span style=&quot;background-color: initial;&quot;&gt;)&lt;/span&gt;&lt;/p&gt;&lt;p style=&quot;margin: 0px 0px 0px 4px; line-height: 140%;&quot;&gt;&lt;span style=&quot;background-color: initial;&quot;&gt;+&amp;nbsp;&lt;/span&gt;&lt;span style=&quot;background-color: initial;&quot;&gt;adicionarPassageiro&lt;/span&gt;&lt;span style=&quot;background-color: initial;&quot;&gt;(Passageiro passageiro): void&lt;/span&gt;&lt;/p&gt;&lt;p style=&quot;margin: 0px 0px 0px 4px; line-height: 140%;&quot;&gt;&lt;span style=&quot;background-color: initial;&quot;&gt;+&amp;nbsp;&lt;/span&gt;&lt;span style=&quot;background-color: initial;&quot;&gt;registrarEmbarque(String documentoPassageiro): void&lt;br&gt;+&amp;nbsp;&lt;/span&gt;&lt;span style=&quot;background-color: initial;&quot;&gt;isInternacional(): boolean&lt;/span&gt;&lt;/p&gt;&lt;p style=&quot;margin: 0px 0px 0px 4px; line-height: 140%;&quot;&gt;&lt;span style=&quot;background-color: initial;&quot;&gt;+ isCancelado(): boolean&lt;/span&gt;&lt;/p&gt;&lt;p style=&quot;margin: 0px 0px 0px 4px; line-height: 140%;&quot;&gt;&lt;span style=&quot;background-color: initial;&quot;&gt;+ cancelar(): void&lt;/span&gt;&lt;/p&gt;&lt;p style=&quot;margin: 0px 0px 0px 4px; line-height: 140%;&quot;&gt;&lt;span style=&quot;background-color: initial;&quot;&gt;+ calcularDistanciaKm():&amp;nbsp;&lt;/span&gt;double&lt;/p&gt;&lt;p style=&quot;margin: 0px 0px 0px 4px; line-height: 140%;&quot;&gt;&lt;span style=&quot;background-color: initial;&quot;&gt;+ calcularTempoDeViagem():&amp;nbsp;&lt;/span&gt;&lt;span style=&quot;background-color: initial;&quot;&gt;double&lt;/span&gt;&lt;span style=&quot;background-color: initial;&quot;&gt;&amp;nbsp;&lt;/span&gt;&lt;span style=&quot;background-color: initial;&quot;&gt;&lt;br&gt;&lt;/span&gt;&lt;/p&gt;&lt;p style=&quot;margin: 0px 0px 0px 4px; line-height: 140%;&quot;&gt;&lt;span style=&quot;background-color: initial;&quot;&gt;+&amp;nbsp;&lt;/span&gt;&lt;span style=&quot;background-color: initial;&quot;&gt;calcularHorarioChegada():&amp;nbsp;&lt;/span&gt;&lt;span style=&quot;background-color: initial;&quot;&gt;LocalDateTime&lt;/span&gt;&lt;/p&gt;" style="verticalAlign=top;align=left;overflow=fill;html=1;whiteSpace=wrap;" parent="1" vertex="1">
          <mxGeometry x="-3550" y="-177.25" width="461" height="468" as="geometry" />
        </mxCell>
        <mxCell id="hHe68IUiqHdVVkdZ2fqz-13" style="edgeStyle=orthogonalEdgeStyle;rounded=0;orthogonalLoop=1;jettySize=auto;html=1;entryX=0.5;entryY=0;entryDx=0;entryDy=0;" parent="1" source="Rtv5H5KLgoa56Eb29u4E-1" target="hHe68IUiqHdVVkdZ2fqz-18" edge="1">
          <mxGeometry relative="1" as="geometry" />
        </mxCell>
        <mxCell id="hHe68IUiqHdVVkdZ2fqz-14" value="1" style="edgeLabel;html=1;align=center;verticalAlign=middle;resizable=0;points=[];" parent="hHe68IUiqHdVVkdZ2fqz-13" vertex="1" connectable="0">
          <mxGeometry x="0.9073" y="2" relative="1" as="geometry">
            <mxPoint x="9" as="offset" />
          </mxGeometry>
        </mxCell>
        <mxCell id="hHe68IUiqHdVVkdZ2fqz-16" value="&lt;p style=&quot;margin: 4px 0px 0px; text-align: center; line-height: 140%;&quot;&gt;&lt;b&gt;Passagem&lt;/b&gt;&lt;/p&gt;&lt;hr size=&quot;1&quot; style=&quot;border-style: solid; line-height: 140%;&quot;&gt;&lt;p style=&quot;margin: 0px 0px 0px 4px; line-height: 140%;&quot;&gt;+ voos: List&amp;lt;Voo&amp;gt;&lt;/p&gt;&lt;p style=&quot;margin: 0px 0px 0px 4px; line-height: 140%;&quot;&gt;+ taxaAgencia: double&lt;/p&gt;&lt;hr size=&quot;1&quot; style=&quot;border-style: solid; line-height: 140%;&quot;&gt;&lt;p style=&quot;margin: 0px 0px 0px 4px; line-height: 140%;&quot;&gt;+ adicionarVoo(voo: Voo): void&lt;br&gt;+ calcularPrecoTotal(): double&lt;/p&gt;&lt;p style=&quot;margin: 0px 0px 0px 4px; line-height: 140%;&quot;&gt;+ calcularCustoTotalComBagagens&lt;/p&gt;&lt;p style=&quot;margin: 0px 0px 0px 4px; line-height: 140%;&quot;&gt;(quantidadeDeBagagensAdicionais: int)&lt;/p&gt;" style="verticalAlign=top;align=left;overflow=fill;html=1;whiteSpace=wrap;spacingTop=4;" parent="1" vertex="1">
          <mxGeometry x="-4009" y="-140" width="240" height="170" as="geometry" />
        </mxCell>
        <mxCell id="hHe68IUiqHdVVkdZ2fqz-17" value="&lt;p style=&quot;margin: 4px 0px 0px; text-align: center; line-height: 140%;&quot;&gt;&lt;b&gt;CompanhiaAerea&lt;/b&gt;&lt;/p&gt;&lt;hr size=&quot;1&quot; style=&quot;border-style: solid; line-height: 140%;&quot;&gt;&lt;p style=&quot;margin: 0px 0px 0px 4px; line-height: 140%;&quot;&gt;- nome: String&lt;/p&gt;&lt;p style=&quot;margin: 0px 0px 0px 4px; line-height: 140%;&quot;&gt;- codigo:&amp;nbsp;&lt;span style=&quot;background-color: initial;&quot;&gt;String&lt;/span&gt;&lt;/p&gt;&lt;p style=&quot;margin: 0px 0px 0px 4px; line-height: 140%;&quot;&gt;&lt;span style=&quot;background-color: initial;&quot;&gt;- razaoSocial:&amp;nbsp;&lt;/span&gt;&lt;span style=&quot;background-color: initial;&quot;&gt;String&lt;/span&gt;&lt;/p&gt;&lt;p style=&quot;margin: 0px 0px 0px 4px; line-height: 140%;&quot;&gt;&lt;span style=&quot;background-color: initial;&quot;&gt;- cnpj:&amp;nbsp;&lt;/span&gt;&lt;span style=&quot;background-color: initial;&quot;&gt;String&lt;/span&gt;&lt;/p&gt;&lt;p style=&quot;margin: 0px 0px 0px 4px; line-height: 140%;&quot;&gt;&lt;span style=&quot;background-color: initial;&quot;&gt;- valorPrimeiraBagagem: double&lt;/span&gt;&lt;/p&gt;&lt;p style=&quot;margin: 0px 0px 0px 4px; line-height: 140%;&quot;&gt;&lt;span style=&quot;background-color: initial;&quot;&gt;- valorBagagensAdicionais: double&lt;/span&gt;&lt;/p&gt;&lt;p style=&quot;margin: 0px 0px 0px 4px; line-height: 140%;&quot;&gt;&lt;span style=&quot;background-color: initial;&quot;&gt;- vipBeneficioAtivo: boolean&lt;/span&gt;&lt;span style=&quot;color: rgb(252, 252, 250); font-family: &amp;quot;JetBrains Mono&amp;quot;, monospace; background-color: initial;&quot;&gt;o&lt;/span&gt;&lt;/p&gt;&lt;hr size=&quot;1&quot; style=&quot;border-style: solid; line-height: 140%;&quot;&gt;&lt;p style=&quot;margin: 0px 0px 0px 4px; line-height: 140%;&quot;&gt;+ CompanhiaAerea(nome: String, cÃ³digo: String, razaoSocial: String, CNPJ: String, valorPrimeiraBagagem: double, valorBagagensAdicionais: double)&lt;br&gt;+ isVipBeneficioAtivo():&amp;nbsp;&lt;span style=&quot;background-color: initial;&quot;&gt;boolean&lt;br&gt;+&amp;nbsp;&lt;/span&gt;&lt;span style=&quot;background-color: initial;&quot;&gt;setVipBeneficioAtivo(ativo:&amp;nbsp;&lt;/span&gt;&lt;span style=&quot;background-color: initial;&quot;&gt;boolean&lt;/span&gt;&lt;span style=&quot;background-color: initial;&quot;&gt;):&amp;nbsp;&lt;/span&gt;&lt;span style=&quot;background-color: initial;&quot;&gt;void&lt;/span&gt;&lt;span style=&quot;background-color: initial;&quot;&gt;&amp;nbsp;&lt;/span&gt;&lt;/p&gt;" style="verticalAlign=top;align=left;overflow=fill;html=1;whiteSpace=wrap;spacingTop=4;" parent="1" vertex="1">
          <mxGeometry x="-3379" y="360" width="340" height="280" as="geometry" />
        </mxCell>
        <mxCell id="hHe68IUiqHdVVkdZ2fqz-18" value="&lt;p style=&quot;margin: 4px 0px 0px; text-align: center; line-height: 140%;&quot;&gt;&lt;b&gt;Bilhete&lt;/b&gt;&lt;/p&gt;&lt;hr size=&quot;1&quot; style=&quot;border-style: solid; line-height: 140%;&quot;&gt;&lt;p style=&quot;margin: 0px 0px 0px 4px; line-height: 140%;&quot;&gt;- passageiro: Passageiro&lt;/p&gt;&lt;p style=&quot;margin: 0px 0px 0px 4px; line-height: 140%;&quot;&gt;- voo: Voo&lt;/p&gt;&lt;hr size=&quot;1&quot; style=&quot;border-style: solid; line-height: 140%;&quot;&gt;&lt;p style=&quot;margin: 0px 0px 0px 4px; line-height: 140%;&quot;&gt;+ Bilhete(passageiro: Passageiro, voo: Voo)&lt;br&gt;+ emitir(): boolean&lt;/p&gt;&lt;p style=&quot;margin: 0px 0px 0px 4px; line-height: 140%;&quot;&gt;+ isPassaporteValido&lt;span style=&quot;background-color: initial;&quot;&gt;(documento: String): boolean&lt;/span&gt;&lt;/p&gt;&lt;p style=&quot;margin: 0px 0px 0px 4px; line-height: 140%;&quot;&gt;&lt;span style=&quot;background-color: initial;&quot;&gt;- isDocumentoNacionalValido(documento:&amp;nbsp;&lt;/span&gt;&lt;/p&gt;&lt;p style=&quot;margin: 0px 0px 0px 4px; line-height: 140%;&quot;&gt;&lt;span style=&quot;background-color: initial;&quot;&gt;String&lt;/span&gt;&lt;span style=&quot;background-color: initial;&quot;&gt;):&amp;nbsp;&lt;/span&gt;&lt;span style=&quot;background-color: initial;&quot;&gt;boolean&lt;/span&gt;&lt;/p&gt;&lt;p style=&quot;margin: 0px 0px 0px 4px; line-height: 140%;&quot;&gt;&lt;span style=&quot;background-color: initial;&quot;&gt;+&amp;nbsp;&lt;/span&gt;&lt;span style=&quot;background-color: initial;&quot;&gt;cartaoDeEmbarque():&amp;nbsp;&lt;/span&gt;&lt;span style=&quot;background-color: initial;&quot;&gt;String&lt;/span&gt;&lt;span style=&quot;background-color: initial;&quot;&gt;&amp;nbsp;&lt;/span&gt;&lt;/p&gt;" style="verticalAlign=top;align=left;overflow=fill;html=1;whiteSpace=wrap;spacingTop=4;" parent="1" vertex="1">
          <mxGeometry x="-3719" y="415" width="290" height="200" as="geometry" />
        </mxCell>
        <mxCell id="hHe68IUiqHdVVkdZ2fqz-19" value="&lt;p style=&quot;margin: 4px 0px 0px; text-align: center; line-height: 140%;&quot;&gt;&lt;b&gt;Passageiro&lt;/b&gt;&lt;/p&gt;&lt;hr size=&quot;1&quot; style=&quot;border-style: solid; line-height: 140%;&quot;&gt;&lt;p style=&quot;margin: 0px 0px 0px 4px; line-height: 140%;&quot;&gt;- nome: String&amp;nbsp;&lt;/p&gt;&lt;p style=&quot;margin: 0px 0px 0px 4px; line-height: 140%;&quot;&gt;- sobrenome: String&lt;/p&gt;&lt;p style=&quot;margin: 0px 0px 0px 4px; line-height: 140%;&quot;&gt;- documento: String&lt;/p&gt;&lt;hr size=&quot;1&quot; style=&quot;border-style: solid; line-height: 140%;&quot;&gt;&lt;p style=&quot;margin: 0px 0px 0px 4px; line-height: 140%;&quot;&gt;+ Passageiro(nome: String, sobrenome:&amp;nbsp;&lt;span style=&quot;background-color: initial;&quot;&gt;String, documento: String)&lt;/span&gt;&lt;/p&gt;" style="verticalAlign=top;align=left;overflow=fill;html=1;whiteSpace=wrap;spacingTop=4;" parent="1" vertex="1">
          <mxGeometry x="-4039.5" y="482.5" width="221" height="147.5" as="geometry" />
        </mxCell>
        <mxCell id="hHe68IUiqHdVVkdZ2fqz-20" value="&lt;p style=&quot;margin: 4px 0px 0px; text-align: center; line-height: 140%;&quot;&gt;&lt;b&gt;Aeroporto&lt;/b&gt;&lt;/p&gt;&lt;hr size=&quot;1&quot; style=&quot;border-style: solid; line-height: 140%;&quot;&gt;&lt;p style=&quot;margin: 0px 0px 0px 4px; line-height: 140%;&quot;&gt;&lt;span style=&quot;font-size: 12px;&quot;&gt;- nome: String&lt;/span&gt;&lt;/p&gt;&lt;p style=&quot;margin: 0px 0px 0px 4px; line-height: 140%;&quot;&gt;&lt;span style=&quot;font-size: 12px;&quot;&gt;- sigla: String&amp;nbsp;&lt;/span&gt;&lt;/p&gt;&lt;p style=&quot;margin: 0px 0px 0px 4px; line-height: 140%;&quot;&gt;&lt;span style=&quot;font-size: 12px;&quot;&gt;- cidade: String&amp;nbsp;&lt;/span&gt;&lt;/p&gt;&lt;p style=&quot;margin: 0px 0px 0px 4px; line-height: 140%;&quot;&gt;&lt;span style=&quot;font-size: 12px;&quot;&gt;- estado: String&lt;/span&gt;&lt;/p&gt;&lt;p style=&quot;margin: 0px 0px 0px 4px; line-height: 140%;&quot;&gt;&lt;span style=&quot;font-size: 12px;&quot;&gt;- pais: String&lt;/span&gt;&lt;/p&gt;&lt;p style=&quot;margin: 0px 0px 0px 4px; line-height: 140%;&quot;&gt;&lt;span style=&quot;font-size: 12px;&quot;&gt;- latitude: double&lt;/span&gt;&lt;/p&gt;&lt;p style=&quot;margin: 0px 0px 0px 4px; line-height: 140%;&quot;&gt;&lt;span style=&quot;font-size: 12px;&quot;&gt;- longitude: double&lt;/span&gt;&lt;/p&gt;&lt;hr size=&quot;1&quot; style=&quot;border-style: solid; line-height: 140%;&quot;&gt;&lt;p style=&quot;margin: 0px 0px 0px 4px; line-height: 140%;&quot;&gt;+&amp;nbsp;&lt;span style=&quot;background-color: initial; font-size: 12px;&quot;&gt;Aeroporto(nome: String, sigla: String, cidade: String, estado:&amp;nbsp; String , pais: String)&lt;/span&gt;&lt;/p&gt;&lt;div&gt;&lt;span style=&quot;background-color: initial;&quot;&gt;&lt;br&gt;&lt;/span&gt;&lt;/div&gt;" style="verticalAlign=top;align=left;overflow=fill;html=1;whiteSpace=wrap;spacingTop=4;" parent="1" vertex="1">
          <mxGeometry x="-2879" y="90.75" width="270" height="224.25" as="geometry" />
        </mxCell>
        <mxCell id="hHe68IUiqHdVVkdZ2fqz-21" value="&lt;p style=&quot;margin: 4px 0px 0px; text-align: center; line-height: 140%;&quot;&gt;&lt;b&gt;Funcionario&lt;/b&gt;&lt;/p&gt;&lt;hr size=&quot;1&quot; style=&quot;border-style: solid; line-height: 140%;&quot;&gt;&lt;p style=&quot;margin: 0px 0px 0px 4px; line-height: 140%;&quot;&gt;&lt;span style=&quot;font-size: 12px;&quot;&gt;- nome: String&lt;/span&gt;&lt;/p&gt;&lt;p style=&quot;margin: 0px 0px 0px 4px; line-height: 140%;&quot;&gt;&lt;span style=&quot;font-size: 12px;&quot;&gt;- cpf: String&amp;nbsp;&lt;/span&gt;&lt;/p&gt;&lt;p style=&quot;margin: 0px 0px 0px 4px; line-height: 140%;&quot;&gt;&lt;span style=&quot;font-size: 12px;&quot;&gt;- email: String&amp;nbsp;&lt;/span&gt;&lt;/p&gt;&lt;p style=&quot;margin: 0px 0px 0px 4px; line-height: 140%;&quot;&gt;&lt;span style=&quot;font-size: 12px;&quot;&gt;- usuario: String&lt;/span&gt;&lt;/p&gt;&lt;p style=&quot;margin: 0px 0px 0px 4px; line-height: 140%;&quot;&gt;&lt;span style=&quot;font-size: 12px;&quot;&gt;- senha: String&lt;/span&gt;&lt;/p&gt;&lt;hr size=&quot;1&quot; style=&quot;border-style: solid; line-height: 140%;&quot;&gt;&lt;p style=&quot;margin: 0px 0px 0px 4px; line-height: 140%;&quot;&gt;+&amp;nbsp;&lt;span style=&quot;background-color: initial; font-size: 12px;&quot;&gt;Funcionario(nome: String, cpf: String, email: String, usuario:&amp;nbsp; String , senha: String)&lt;/span&gt;&lt;/p&gt;&lt;p style=&quot;margin: 0px 0px 0px 4px; line-height: 140%;&quot;&gt;&lt;span style=&quot;background-color: initial; font-size: 12px;&quot;&gt;+ autenticar(usuario: String, senha: String): boolean&lt;/span&gt;&lt;/p&gt;&lt;div&gt;&lt;span style=&quot;background-color: initial;&quot;&gt;&lt;br&gt;&lt;/span&gt;&lt;/div&gt;" style="verticalAlign=top;align=left;overflow=fill;html=1;whiteSpace=wrap;spacingTop=4;" parent="1" vertex="1">
          <mxGeometry x="-2884" y="400" width="220" height="230" as="geometry" />
        </mxCell>
        <mxCell id="hHe68IUiqHdVVkdZ2fqz-22" value="1" style="endArrow=open;html=1;endSize=12;startArrow=diamondThin;startSize=14;startFill=0;edgeStyle=orthogonalEdgeStyle;align=left;verticalAlign=bottom;rounded=0;entryX=0;entryY=0.5;entryDx=0;entryDy=0;exitX=1;exitY=0.5;exitDx=0;exitDy=0;" parent="1" source="hHe68IUiqHdVVkdZ2fqz-16" target="hHe68IUiqHdVVkdZ2fqz-12" edge="1">
          <mxGeometry x="-0.9395" y="5" relative="1" as="geometry">
            <mxPoint x="-3719" y="-13.420000000000016" as="sourcePoint" />
            <mxPoint x="-3559" y="-13.420000000000016" as="targetPoint" />
            <mxPoint as="offset" />
          </mxGeometry>
        </mxCell>
        <mxCell id="hHe68IUiqHdVVkdZ2fqz-23" value="1..*" style="edgeLabel;html=1;align=center;verticalAlign=middle;resizable=0;points=[];" parent="hHe68IUiqHdVVkdZ2fqz-22" vertex="1" connectable="0">
          <mxGeometry x="0.8278" y="-3" relative="1" as="geometry">
            <mxPoint x="-2" y="-23" as="offset" />
          </mxGeometry>
        </mxCell>
        <mxCell id="hHe68IUiqHdVVkdZ2fqz-24" value="" style="html=1;verticalAlign=bottom;endArrow=block;rounded=0;entryX=0;entryY=0.5;entryDx=0;entryDy=0;exitX=1;exitY=0.5;exitDx=0;exitDy=0;startArrow=block;startFill=1;edgeStyle=orthogonalEdgeStyle;" parent="1" source="hHe68IUiqHdVVkdZ2fqz-12" target="hHe68IUiqHdVVkdZ2fqz-20" edge="1">
          <mxGeometry width="80" relative="1" as="geometry">
            <mxPoint x="-3039" y="-13.710000000000036" as="sourcePoint" />
            <mxPoint x="-2959" y="-13.710000000000036" as="targetPoint" />
            <mxPoint as="offset" />
          </mxGeometry>
        </mxCell>
        <mxCell id="hHe68IUiqHdVVkdZ2fqz-25" value="1" style="edgeLabel;html=1;align=center;verticalAlign=middle;resizable=0;points=[];" parent="hHe68IUiqHdVVkdZ2fqz-24" vertex="1" connectable="0">
          <mxGeometry x="-0.8125" y="-1" relative="1" as="geometry">
            <mxPoint x="-11" y="-21" as="offset" />
          </mxGeometry>
        </mxCell>
        <mxCell id="hHe68IUiqHdVVkdZ2fqz-26" value="1" style="edgeLabel;html=1;align=center;verticalAlign=middle;resizable=0;points=[];" parent="hHe68IUiqHdVVkdZ2fqz-24" vertex="1" connectable="0">
          <mxGeometry x="-0.8965" relative="1" as="geometry">
            <mxPoint y="20" as="offset" />
          </mxGeometry>
        </mxCell>
        <mxCell id="hHe68IUiqHdVVkdZ2fqz-27" value="1 (origem)" style="edgeLabel;html=1;align=center;verticalAlign=middle;resizable=0;points=[];" parent="hHe68IUiqHdVVkdZ2fqz-24" vertex="1" connectable="0">
          <mxGeometry x="0.6388" y="-1" relative="1" as="geometry">
            <mxPoint x="12" y="-11" as="offset" />
          </mxGeometry>
        </mxCell>
        <mxCell id="hHe68IUiqHdVVkdZ2fqz-28" value="1 (destino)" style="edgeLabel;html=1;align=center;verticalAlign=middle;resizable=0;points=[];" parent="hHe68IUiqHdVVkdZ2fqz-24" vertex="1" connectable="0">
          <mxGeometry x="0.7707" y="-1" relative="1" as="geometry">
            <mxPoint x="-3" y="9" as="offset" />
          </mxGeometry>
        </mxCell>
        <mxCell id="hHe68IUiqHdVVkdZ2fqz-29" value="" style="endArrow=open;html=1;endSize=12;startArrow=diamondThin;startSize=14;startFill=0;edgeStyle=orthogonalEdgeStyle;align=left;verticalAlign=bottom;rounded=0;entryX=0;entryY=0.5;entryDx=0;entryDy=0;exitX=1;exitY=0.5;exitDx=0;exitDy=0;" parent="1" source="hHe68IUiqHdVVkdZ2fqz-19" target="hHe68IUiqHdVVkdZ2fqz-18" edge="1">
          <mxGeometry x="-0.678" y="-7" relative="1" as="geometry">
            <mxPoint x="-3849" y="315" as="sourcePoint" />
            <mxPoint x="-3749" y="457" as="targetPoint" />
            <mxPoint as="offset" />
          </mxGeometry>
        </mxCell>
        <mxCell id="hHe68IUiqHdVVkdZ2fqz-30" value="1" style="edgeLabel;html=1;align=center;verticalAlign=middle;resizable=0;points=[];" parent="hHe68IUiqHdVVkdZ2fqz-29" vertex="1" connectable="0">
          <mxGeometry x="0.5926" y="-2" relative="1" as="geometry">
            <mxPoint x="-5" y="-10" as="offset" />
          </mxGeometry>
        </mxCell>
        <mxCell id="hHe68IUiqHdVVkdZ2fqz-31" value="1..*" style="edgeLabel;html=1;align=center;verticalAlign=middle;resizable=0;points=[];" parent="hHe68IUiqHdVVkdZ2fqz-29" vertex="1" connectable="0">
          <mxGeometry x="-0.8387" y="1" relative="1" as="geometry">
            <mxPoint x="10" y="-8" as="offset" />
          </mxGeometry>
        </mxCell>
        <mxCell id="hHe68IUiqHdVVkdZ2fqz-32" value="" style="endArrow=none;html=1;endSize=12;startArrow=diamondThin;startSize=14;startFill=0;edgeStyle=orthogonalEdgeStyle;align=left;verticalAlign=bottom;rounded=0;exitX=0.5;exitY=1;exitDx=0;exitDy=0;entryX=0.5;entryY=0;entryDx=0;entryDy=0;endFill=0;" parent="1" source="hHe68IUiqHdVVkdZ2fqz-12" target="hHe68IUiqHdVVkdZ2fqz-17" edge="1">
          <mxGeometry x="-1" y="3" relative="1" as="geometry">
            <mxPoint x="-3499" y="235" as="sourcePoint" />
            <mxPoint x="-3339" y="235" as="targetPoint" />
          </mxGeometry>
        </mxCell>
        <mxCell id="hHe68IUiqHdVVkdZ2fqz-33" value="1..*" style="edgeLabel;html=1;align=center;verticalAlign=middle;resizable=0;points=[];" parent="hHe68IUiqHdVVkdZ2fqz-32" vertex="1" connectable="0">
          <mxGeometry x="0.8809" y="1" relative="1" as="geometry">
            <mxPoint x="10" y="-4" as="offset" />
          </mxGeometry>
        </mxCell>
        <mxCell id="hHe68IUiqHdVVkdZ2fqz-34" value="1" style="edgeLabel;html=1;align=center;verticalAlign=middle;resizable=0;points=[];" parent="hHe68IUiqHdVVkdZ2fqz-32" vertex="1" connectable="0">
          <mxGeometry x="-0.6191" relative="1" as="geometry">
            <mxPoint x="-10" y="-10" as="offset" />
          </mxGeometry>
        </mxCell>
        <mxCell id="hHe68IUiqHdVVkdZ2fqz-35" style="edgeStyle=orthogonalEdgeStyle;rounded=0;orthogonalLoop=1;jettySize=auto;html=1;entryX=0.002;entryY=0.138;entryDx=0;entryDy=0;endArrow=none;endFill=0;entryPerimeter=0;" parent="1" source="hHe68IUiqHdVVkdZ2fqz-38" target="hHe68IUiqHdVVkdZ2fqz-12" edge="1">
          <mxGeometry relative="1" as="geometry" />
        </mxCell>
        <mxCell id="hHe68IUiqHdVVkdZ2fqz-36" value="1" style="edgeLabel;html=1;align=center;verticalAlign=middle;resizable=0;points=[];" parent="hHe68IUiqHdVVkdZ2fqz-35" vertex="1" connectable="0">
          <mxGeometry x="-0.8788" y="-1" relative="1" as="geometry">
            <mxPoint x="-15" y="14" as="offset" />
          </mxGeometry>
        </mxCell>
        <mxCell id="hHe68IUiqHdVVkdZ2fqz-37" value="1" style="edgeLabel;html=1;align=center;verticalAlign=middle;resizable=0;points=[];" parent="hHe68IUiqHdVVkdZ2fqz-35" vertex="1" connectable="0">
          <mxGeometry x="0.9009" y="1" relative="1" as="geometry">
            <mxPoint x="2" y="-16" as="offset" />
          </mxGeometry>
        </mxCell>
        <mxCell id="hHe68IUiqHdVVkdZ2fqz-38" value="&lt;p style=&quot;margin: 4px 0px 0px; text-align: center; line-height: 140%;&quot;&gt;&lt;b&gt;Frequencia&lt;/b&gt;&lt;/p&gt;&lt;hr size=&quot;1&quot; style=&quot;border-style: solid; line-height: 140%;&quot;&gt;&lt;p style=&quot;margin: 0px 0px 0px 4px; line-height: 140%;&quot;&gt;&lt;span style=&quot;font-size: 12px;&quot;&gt;- diasDaSemana: List&amp;lt;DayOfWeek&amp;gt;&lt;br&gt;&lt;/span&gt;&lt;/p&gt;&lt;p style=&quot;margin: 0px 0px 0px 4px; line-height: 140%;&quot;&gt;&lt;span style=&quot;font-size: 12px;&quot;&gt;- voo: Voo&lt;/span&gt;&lt;/p&gt;&lt;hr size=&quot;1&quot; style=&quot;border-style: solid; line-height: 140%;&quot;&gt;&lt;p style=&quot;margin: 0px 0px 0px 4px; line-height: 140%;&quot;&gt;+&amp;nbsp;&lt;span style=&quot;background-color: initial;&quot;&gt;Frequencia(voo:&amp;nbsp;&lt;/span&gt;&lt;span style=&quot;background-color: initial;&quot;&gt;Voo&lt;/span&gt;&lt;span style=&quot;background-color: initial;&quot;&gt;, diasDaSemana:&amp;nbsp;&lt;/span&gt;&lt;span style=&quot;background-color: initial;&quot;&gt;List&amp;lt;DayOfWeek&amp;gt;&lt;/span&gt;&lt;span style=&quot;background-color: initial;&quot;&gt;)&lt;/span&gt;&lt;/p&gt;&lt;p style=&quot;margin: 0px 0px 0px 4px; line-height: 140%;&quot;&gt;&lt;span style=&quot;background-color: initial;&quot;&gt;+ gerarHorarios():&amp;nbsp;&lt;/span&gt;&lt;span style=&quot;background-color: initial;&quot;&gt;List&amp;lt;LocalDateTime&amp;gt;&lt;/span&gt;&lt;/p&gt;&lt;div&gt;&lt;span style=&quot;background-color: initial;&quot;&gt;&lt;br&gt;&lt;/span&gt;&lt;/div&gt;" style="verticalAlign=top;align=left;overflow=fill;html=1;whiteSpace=wrap;spacingTop=4;" parent="1" vertex="1">
          <mxGeometry x="-3969" y="-360" width="230" height="153" as="geometry" />
        </mxCell>
        <mxCell id="hHe68IUiqHdVVkdZ2fqz-39" value="&lt;p style=&quot;margin: 4px 0px 0px; text-align: center; line-height: 140%;&quot;&gt;&lt;b&gt;ProgramarViagens&lt;/b&gt;&lt;/p&gt;&lt;hr size=&quot;1&quot; style=&quot;border-style: solid; line-height: 140%;&quot;&gt;&lt;p style=&quot;margin: 0px 0px 0px 4px; line-height: 140%;&quot;&gt;&lt;span style=&quot;font-size: 12px;&quot;&gt;- &lt;u&gt;PERIODO_DIAS: int&lt;/u&gt;&lt;br&gt;&lt;/span&gt;&lt;/p&gt;&lt;hr size=&quot;1&quot; style=&quot;border-style: solid; line-height: 140%;&quot;&gt;&lt;p style=&quot;margin: 0px 0px 0px 4px; line-height: 140%;&quot;&gt;+&amp;nbsp;&lt;span style=&quot;background-color: initial;&quot;&gt;programarVoosPorPeriodo(&lt;/span&gt;&lt;span style=&quot;background-color: initial;&quot;&gt;vooOriginal:&amp;nbsp;&lt;/span&gt;&lt;span style=&quot;background-color: initial;&quot;&gt;Voo&lt;/span&gt;&lt;span style=&quot;background-color: initial;&quot;&gt;, frequencia:&amp;nbsp;&lt;/span&gt;&lt;span style=&quot;background-color: initial;&quot;&gt;Frequencia&lt;/span&gt;&lt;span style=&quot;background-color: initial;&quot;&gt;&amp;nbsp;&lt;/span&gt;&lt;span style=&quot;background-color: initial;&quot;&gt;):&amp;nbsp;&lt;/span&gt;&lt;span style=&quot;background-color: initial;&quot;&gt;List&amp;lt;Voo&amp;gt;&lt;/span&gt;&lt;/p&gt;&lt;div&gt;&lt;span style=&quot;background-color: initial;&quot;&gt;&lt;br&gt;&lt;/span&gt;&lt;/div&gt;" style="verticalAlign=top;align=left;overflow=fill;html=1;whiteSpace=wrap;spacingTop=4;" parent="1" vertex="1">
          <mxGeometry x="-2879" y="-85" width="270" height="123" as="geometry" />
        </mxCell>
        <mxCell id="hHe68IUiqHdVVkdZ2fqz-40" value="&lt;p style=&quot;margin: 4px 0px 0px; text-align: center; line-height: 140%;&quot;&gt;&lt;b&gt;Aeronave&lt;/b&gt;&lt;/p&gt;&lt;hr size=&quot;1&quot; style=&quot;border-style: solid; line-height: 140%;&quot;&gt;&lt;p style=&quot;margin: 0px 0px 0px 4px; line-height: 140%;&quot;&gt;&lt;span style=&quot;font-size: 12px;&quot;&gt;- modelo: String&lt;/span&gt;&lt;/p&gt;&lt;p style=&quot;margin: 0px 0px 0px 4px; line-height: 140%;&quot;&gt;- capacidadePassageiros: int&lt;/p&gt;&lt;p style=&quot;margin: 0px 0px 0px 4px; line-height: 140%;&quot;&gt;- capacidadeCarga: int&lt;/p&gt;&lt;p style=&quot;margin: 0px 0px 0px 4px; line-height: 140%;&quot;&gt;- numeroFileiras: int&lt;/p&gt;&lt;p style=&quot;margin: 0px 0px 0px 4px; line-height: 140%;&quot;&gt;-&amp;nbsp;velocidadeMedia: double&lt;/p&gt;&lt;hr size=&quot;1&quot; style=&quot;border-style: solid; line-height: 140%;&quot;&gt;&lt;p style=&quot;margin: 0px 0px 0px 4px; line-height: 140%;&quot;&gt;+&amp;nbsp;&lt;span style=&quot;background-color: initial;&quot;&gt;Aeronave(modelo:&amp;nbsp;&lt;/span&gt;&lt;span style=&quot;background-color: initial;&quot;&gt;String&lt;/span&gt;&lt;span style=&quot;background-color: initial;&quot;&gt;, capacidadeCarga:&amp;nbsp;&lt;/span&gt;&lt;span style=&quot;background-color: initial;&quot;&gt;int&lt;/span&gt;&lt;span style=&quot;background-color: initial;&quot;&gt;, capacidadePassageiros:&amp;nbsp;&lt;/span&gt;&lt;span style=&quot;background-color: initial;&quot;&gt;&amp;nbsp;&lt;/span&gt;&lt;span style=&quot;background-color: initial;&quot;&gt;int&lt;/span&gt;&lt;span style=&quot;background-color: initial;&quot;&gt;, numeroFileiras:&amp;nbsp;&lt;/span&gt;&lt;span style=&quot;background-color: initial;&quot;&gt;int&lt;/span&gt;&lt;span style=&quot;background-color: initial;&quot;&gt;)&lt;/span&gt;&lt;/p&gt;&lt;p style=&quot;margin: 0px 0px 0px 4px; line-height: 140%;&quot;&gt;&lt;span style=&quot;background-color: initial;&quot;&gt;+ gerarAssentos(usuario: String, senha: String): boolean&lt;/span&gt;&lt;/p&gt;&lt;div&gt;&lt;span style=&quot;background-color: initial;&quot;&gt;&lt;br&gt;&lt;/span&gt;&lt;/div&gt;" style="verticalAlign=top;align=left;overflow=fill;html=1;whiteSpace=wrap;spacingTop=4;" parent="1" vertex="1">
          <mxGeometry x="-3609" y="-480" width="320" height="200" as="geometry" />
        </mxCell>
        <mxCell id="hHe68IUiqHdVVkdZ2fqz-41" value="&lt;p style=&quot;margin: 4px 0px 0px; text-align: center; line-height: 140%;&quot;&gt;&lt;b&gt;Assento&lt;/b&gt;&lt;/p&gt;&lt;hr size=&quot;1&quot; style=&quot;border-style: solid; line-height: 140%;&quot;&gt;&lt;p style=&quot;margin: 0px 0px 0px 4px; line-height: 140%;&quot;&gt;&lt;span style=&quot;font-size: 12px;&quot;&gt;- numeroAssento: String&lt;br&gt;&lt;/span&gt;&lt;/p&gt;&lt;p style=&quot;margin: 0px 0px 0px 4px; line-height: 140%;&quot;&gt;&lt;span style=&quot;font-size: 12px;&quot;&gt;- disponivel: boolean&lt;/span&gt;&lt;/p&gt;&lt;hr size=&quot;1&quot; style=&quot;border-style: solid; line-height: 140%;&quot;&gt;&lt;p style=&quot;margin: 0px 0px 0px 4px; line-height: 140%;&quot;&gt;+&amp;nbsp;&lt;span style=&quot;background-color: initial;&quot;&gt;Assento(&lt;/span&gt;numeroAssento&lt;span style=&quot;background-color: initial;&quot;&gt;: String&lt;/span&gt;&lt;span style=&quot;background-color: initial;&quot;&gt;)&lt;/span&gt;&lt;/p&gt;&lt;p style=&quot;margin: 0px 0px 0px 4px; line-height: 140%;&quot;&gt;&lt;span style=&quot;background-color: initial;&quot;&gt;+ isDisponivel():&amp;nbsp;&lt;/span&gt;&lt;span style=&quot;background-color: initial;&quot;&gt;boolean&lt;/span&gt;&lt;/p&gt;&lt;p style=&quot;margin: 0px 0px 0px 4px; line-height: 140%;&quot;&gt;&lt;span style=&quot;background-color: initial;&quot;&gt;+ reservar(): void&lt;/span&gt;&lt;/p&gt;&lt;p style=&quot;margin: 0px 0px 0px 4px; line-height: 140%;&quot;&gt;&lt;span style=&quot;background-color: initial;&quot;&gt;+ liberar(): void&lt;/span&gt;&lt;/p&gt;&lt;p style=&quot;margin: 0px 0px 0px 4px; line-height: 140%;&quot;&gt;&lt;span style=&quot;background-color: initial;&quot;&gt;+&amp;nbsp;&lt;/span&gt;&lt;span style=&quot;background-color: initial;&quot;&gt;inicializarAssentos:&amp;nbsp;&lt;/span&gt;&lt;span style=&quot;background-color: initial;&quot;&gt;List&amp;lt;Assento&amp;gt;&lt;/span&gt;&lt;/p&gt;&lt;p style=&quot;margin: 0px 0px 0px 4px; line-height: 140%;&quot;&gt;&lt;span style=&quot;background-color: initial;&quot;&gt;+&amp;nbsp;&lt;/span&gt;&lt;span style=&quot;background-color: initial;&quot;&gt;encontrarAssento:&amp;nbsp;&lt;/span&gt;&lt;span style=&quot;background-color: initial;&quot;&gt;Optional&amp;lt;Assento&amp;gt;&lt;/span&gt;&lt;/p&gt;&lt;p style=&quot;margin: 0px 0px 0px 4px; line-height: 140%;&quot;&gt;&lt;span style=&quot;background-color: initial;&quot;&gt;+&amp;nbsp;&lt;/span&gt;&lt;span style=&quot;background-color: initial;&quot;&gt;verificarDisponibilidade:&amp;nbsp;&lt;/span&gt;&lt;span style=&quot;background-color: initial;&quot;&gt;boolean&lt;br&gt;+&amp;nbsp;&lt;/span&gt;&lt;span style=&quot;background-color: initial;&quot;&gt;reservarAssento:&amp;nbsp;&lt;/span&gt;&lt;span style=&quot;background-color: initial;&quot;&gt;boolean&lt;/span&gt;&lt;/p&gt;&lt;p style=&quot;margin: 0px 0px 0px 4px; line-height: 140%;&quot;&gt;&lt;span style=&quot;background-color: initial;&quot;&gt;&lt;br&gt;&lt;/span&gt;&lt;/p&gt;&lt;div&gt;&lt;span style=&quot;background-color: initial;&quot;&gt;&lt;br&gt;&lt;/span&gt;&lt;/div&gt;" style="verticalAlign=top;align=left;overflow=fill;html=1;whiteSpace=wrap;spacingTop=4;" parent="1" vertex="1">
          <mxGeometry x="-3203" y="-500" width="250" height="240" as="geometry" />
        </mxCell>
        <mxCell id="hHe68IUiqHdVVkdZ2fqz-42" value="&lt;p style=&quot;margin: 4px 0px 0px; text-align: center; line-height: 140%;&quot;&gt;&lt;b&gt;CancelamentoVoo&lt;/b&gt;&lt;/p&gt;&lt;hr size=&quot;1&quot; style=&quot;border-style: solid; line-height: 140%;&quot;&gt;&lt;p style=&quot;margin: 0px 0px 0px 4px; line-height: 140%;&quot;&gt;- voos:&amp;nbsp;&lt;span style=&quot;background-color: initial;&quot;&gt;List&amp;lt;Voo&amp;gt;&lt;/span&gt;&lt;/p&gt;&lt;hr size=&quot;1&quot; style=&quot;border-style: solid; line-height: 140%;&quot;&gt;&lt;p style=&quot;margin: 0px 0px 0px 4px; line-height: 140%;&quot;&gt;+&amp;nbsp;CancelamentoVoo()&lt;/p&gt;&lt;p style=&quot;margin: 0px 0px 0px 4px; line-height: 140%;&quot;&gt;+&amp;nbsp;&lt;span style=&quot;background-color: initial;&quot;&gt;adicionarVoo(voo: Voo&lt;/span&gt;&lt;span style=&quot;background-color: initial;&quot;&gt;): void&lt;/span&gt;&lt;/p&gt;&lt;p style=&quot;margin: 0px 0px 0px 4px; line-height: 140%;&quot;&gt;&lt;span style=&quot;background-color: initial;&quot;&gt;+ cancelarVoo(numeroVoo:&amp;nbsp;&lt;/span&gt;&lt;span style=&quot;background-color: initial;&quot;&gt;String&lt;/span&gt;&lt;span style=&quot;background-color: initial;&quot;&gt;)&lt;/span&gt;&lt;span style=&quot;background-color: initial;&quot;&gt;: boolean&lt;/span&gt;&lt;/p&gt;&lt;p style=&quot;margin: 0px 0px 0px 4px; line-height: 140%;&quot;&gt;&lt;span style=&quot;background-color: initial;&quot;&gt;+&amp;nbsp;&lt;/span&gt;&lt;span style=&quot;background-color: initial;&quot;&gt;reverterCancelamento(numeroVoo:&amp;nbsp;&lt;/span&gt;&lt;span style=&quot;background-color: initial;&quot;&gt;String&lt;/span&gt;&lt;span style=&quot;background-color: initial;&quot;&gt;):&amp;nbsp;&lt;/span&gt;&lt;span style=&quot;background-color: initial;&quot;&gt;boolean&lt;/span&gt;&lt;/p&gt;&lt;p style=&quot;margin: 0px 0px 0px 4px; line-height: 140%;&quot;&gt;&lt;span style=&quot;background-color: initial;&quot;&gt;+&amp;nbsp;&lt;/span&gt;&lt;span style=&quot;background-color: initial;&quot;&gt;listarVoosCancelados():&amp;nbsp;&lt;/span&gt;&lt;span style=&quot;background-color: initial;&quot;&gt;List&amp;lt;Voo&amp;gt;&amp;nbsp;&lt;/span&gt;&lt;/p&gt;&lt;p style=&quot;margin: 0px 0px 0px 4px; line-height: 140%;&quot;&gt;&lt;span style=&quot;background-color: initial;&quot;&gt;+&amp;nbsp;&lt;/span&gt;&lt;span style=&quot;background-color: initial;&quot;&gt;listarTodosVoos():&amp;nbsp;&lt;/span&gt;&lt;span style=&quot;background-color: initial;&quot;&gt;List&amp;lt;Voo&amp;gt;&amp;nbsp;&lt;/span&gt;&lt;/p&gt;&lt;div&gt;&lt;span style=&quot;background-color: initial;&quot;&gt;&lt;br&gt;&lt;/span&gt;&lt;/div&gt;" style="verticalAlign=top;align=left;overflow=fill;html=1;whiteSpace=wrap;spacingTop=4;" parent="1" vertex="1">
          <mxGeometry x="-2904" y="-295" width="305" height="175" as="geometry" />
        </mxCell>
        <mxCell id="hHe68IUiqHdVVkdZ2fqz-43" value="" style="endArrow=none;html=1;endSize=12;startArrow=diamondThin;startSize=14;startFill=0;edgeStyle=orthogonalEdgeStyle;align=left;verticalAlign=bottom;rounded=0;exitX=0.5;exitY=0;exitDx=0;exitDy=0;entryX=0.5;entryY=1;entryDx=0;entryDy=0;endFill=0;" parent="1" source="hHe68IUiqHdVVkdZ2fqz-12" target="hHe68IUiqHdVVkdZ2fqz-40" edge="1">
          <mxGeometry x="-1" y="3" relative="1" as="geometry">
            <mxPoint x="-3049" y="-255" as="sourcePoint" />
            <mxPoint x="-3049" y="-115" as="targetPoint" />
          </mxGeometry>
        </mxCell>
        <mxCell id="hHe68IUiqHdVVkdZ2fqz-44" value="1..*" style="edgeLabel;html=1;align=center;verticalAlign=middle;resizable=0;points=[];" parent="hHe68IUiqHdVVkdZ2fqz-43" vertex="1" connectable="0">
          <mxGeometry x="0.8809" y="1" relative="1" as="geometry">
            <mxPoint x="10" y="5" as="offset" />
          </mxGeometry>
        </mxCell>
        <mxCell id="hHe68IUiqHdVVkdZ2fqz-45" value="1" style="edgeLabel;html=1;align=center;verticalAlign=middle;resizable=0;points=[];" parent="hHe68IUiqHdVVkdZ2fqz-43" vertex="1" connectable="0">
          <mxGeometry x="-0.6191" relative="1" as="geometry">
            <mxPoint x="-10" y="-10" as="offset" />
          </mxGeometry>
        </mxCell>
        <mxCell id="hHe68IUiqHdVVkdZ2fqz-46" value="" style="endArrow=none;html=1;endSize=12;startArrow=diamondThin;startSize=14;startFill=1;edgeStyle=orthogonalEdgeStyle;align=left;verticalAlign=bottom;rounded=0;exitX=0;exitY=0.5;exitDx=0;exitDy=0;entryX=1;entryY=0.5;entryDx=0;entryDy=0;endFill=0;" parent="1" source="hHe68IUiqHdVVkdZ2fqz-41" target="hHe68IUiqHdVVkdZ2fqz-40" edge="1">
          <mxGeometry x="-1" y="3" relative="1" as="geometry">
            <mxPoint x="-3309" y="-133" as="sourcePoint" />
            <mxPoint x="-3309" y="-215" as="targetPoint" />
          </mxGeometry>
        </mxCell>
        <mxCell id="hHe68IUiqHdVVkdZ2fqz-47" value="1..*" style="edgeLabel;html=1;align=center;verticalAlign=middle;resizable=0;points=[];" parent="hHe68IUiqHdVVkdZ2fqz-46" vertex="1" connectable="0">
          <mxGeometry x="0.8809" y="1" relative="1" as="geometry">
            <mxPoint x="10" y="-16" as="offset" />
          </mxGeometry>
        </mxCell>
        <mxCell id="hHe68IUiqHdVVkdZ2fqz-48" value="1" style="edgeLabel;html=1;align=center;verticalAlign=middle;resizable=0;points=[];" parent="hHe68IUiqHdVVkdZ2fqz-46" vertex="1" connectable="0">
          <mxGeometry x="-0.6191" relative="1" as="geometry">
            <mxPoint x="1" y="15" as="offset" />
          </mxGeometry>
        </mxCell>
        <mxCell id="hHe68IUiqHdVVkdZ2fqz-49" style="edgeStyle=orthogonalEdgeStyle;rounded=0;orthogonalLoop=1;jettySize=auto;html=1;exitX=0;exitY=0.5;exitDx=0;exitDy=0;entryX=0.75;entryY=0;entryDx=0;entryDy=0;endArrow=none;endFill=0;" parent="1" source="hHe68IUiqHdVVkdZ2fqz-42" target="hHe68IUiqHdVVkdZ2fqz-12" edge="1">
          <mxGeometry relative="1" as="geometry">
            <Array as="points">
              <mxPoint x="-3204" y="-231" />
            </Array>
          </mxGeometry>
        </mxCell>
        <mxCell id="hHe68IUiqHdVVkdZ2fqz-50" value="1" style="edgeLabel;html=1;align=center;verticalAlign=middle;resizable=0;points=[];" parent="hHe68IUiqHdVVkdZ2fqz-49" vertex="1" connectable="0">
          <mxGeometry x="0.8846" relative="1" as="geometry">
            <mxPoint x="15" y="4" as="offset" />
          </mxGeometry>
        </mxCell>
        <mxCell id="hHe68IUiqHdVVkdZ2fqz-51" value="1" style="edgeLabel;html=1;align=center;verticalAlign=middle;resizable=0;points=[];" parent="hHe68IUiqHdVVkdZ2fqz-49" vertex="1" connectable="0">
          <mxGeometry x="-0.8613" y="2" relative="1" as="geometry">
            <mxPoint x="-4" y="9" as="offset" />
          </mxGeometry>
        </mxCell>
        <mxCell id="hHe68IUiqHdVVkdZ2fqz-55" value="&lt;font style=&quot;font-size: 25px;&quot;&gt;Entidades&lt;/font&gt;" style="text;align=center;fontStyle=1;verticalAlign=middle;spacingLeft=3;spacingRight=3;strokeColor=none;rotatable=0;points=[[0,0.5],[1,0.5]];portConstraint=eastwest;html=1;" parent="1" vertex="1">
          <mxGeometry x="-4079" y="-610" width="340" height="70" as="geometry" />
        </mxCell>
        <mxCell id="65q7ZS-yUtM_7gpTNHfP-1" value="" style="edgeStyle=orthogonalEdgeStyle;rounded=0;orthogonalLoop=1;jettySize=auto;html=1;entryX=0.5;entryY=0;entryDx=0;entryDy=0;" edge="1" parent="1" source="hHe68IUiqHdVVkdZ2fqz-16" target="Rtv5H5KLgoa56Eb29u4E-1">
          <mxGeometry relative="1" as="geometry">
            <mxPoint x="-3859" y="72" as="sourcePoint" />
            <mxPoint x="-3661" y="330" as="targetPoint" />
          </mxGeometry>
        </mxCell>
        <mxCell id="65q7ZS-yUtM_7gpTNHfP-3" value="1" style="edgeLabel;html=1;align=center;verticalAlign=middle;resizable=0;points=[];" vertex="1" connectable="0" parent="65q7ZS-yUtM_7gpTNHfP-1">
          <mxGeometry x="-0.9564" y="1" relative="1" as="geometry">
            <mxPoint x="9" y="8" as="offset" />
          </mxGeometry>
        </mxCell>
        <mxCell id="Rtv5H5KLgoa56Eb29u4E-1" value="&lt;p style=&quot;margin: 4px 0px 0px; text-align: center; line-height: 140%;&quot;&gt;&lt;b&gt;CartaoEmbarque&lt;/b&gt;&lt;/p&gt;&lt;hr size=&quot;1&quot; style=&quot;border-style: solid; line-height: 140%;&quot;&gt;&lt;p style=&quot;margin: 0px 0px 0px 4px; line-height: 140%;&quot;&gt;&lt;span style=&quot;font-size: 12px;&quot;&gt;-&amp;nbsp;&lt;/span&gt;&lt;span style=&quot;background-color: initial;&quot;&gt;nome:&amp;nbsp;&lt;/span&gt;&lt;span style=&quot;background-color: initial;&quot;&gt;String&lt;/span&gt;&lt;span style=&quot;background-color: initial;&quot;&gt;&amp;nbsp;&lt;/span&gt;&lt;br&gt;&lt;/p&gt;&lt;p style=&quot;margin: 0px 0px 0px 4px; line-height: 140%;&quot;&gt;- sobrenome:&amp;nbsp;&lt;span style=&quot;background-color: initial;&quot;&gt;String&lt;/span&gt;&lt;/p&gt;&lt;p style=&quot;margin: 0px 0px 0px 4px; line-height: 140%;&quot;&gt;- origem:&amp;nbsp;&lt;span style=&quot;background-color: initial;&quot;&gt;String&lt;/span&gt;&lt;span style=&quot;background-color: initial;&quot;&gt;&amp;nbsp;&lt;/span&gt;&lt;/p&gt;&lt;p style=&quot;margin: 0px 0px 0px 4px; line-height: 140%;&quot;&gt;- destino:&amp;nbsp;&lt;span style=&quot;background-color: initial;&quot;&gt;String&lt;/span&gt;&lt;/p&gt;&lt;p style=&quot;margin: 0px 0px 0px 4px; line-height: 140%;&quot;&gt;- horarioEmbarque:&amp;nbsp;&lt;span style=&quot;background-color: initial;&quot;&gt;LocalDateTime&lt;/span&gt;&lt;span style=&quot;background-color: initial;&quot;&gt;&amp;nbsp;&lt;/span&gt;&lt;/p&gt;&lt;p style=&quot;margin: 0px 0px 0px 4px; line-height: 140%;&quot;&gt;- horarioVoo:&amp;nbsp;&lt;span style=&quot;background-color: initial;&quot;&gt;LocalDateTime&lt;/span&gt;&lt;span style=&quot;background-color: initial;&quot;&gt;&amp;nbsp;&lt;/span&gt;&lt;/p&gt;&lt;p style=&quot;margin: 0px 0px 0px 4px; line-height: 140%;&quot;&gt;- assento:&amp;nbsp;&lt;span style=&quot;background-color: initial;&quot;&gt;String&lt;/span&gt;&lt;span style=&quot;background-color: initial;&quot;&gt;&amp;nbsp;&lt;/span&gt;&lt;/p&gt;&lt;hr size=&quot;1&quot; style=&quot;border-style: solid; line-height: 140%;&quot;&gt;&lt;p style=&quot;margin: 0px 0px 0px 4px; line-height: 140%;&quot;&gt;+&amp;nbsp;&lt;span style=&quot;background-color: initial;&quot;&gt;CartaoEmbarque(nome:&amp;nbsp;&lt;/span&gt;&lt;span style=&quot;background-color: initial;&quot;&gt;String&lt;/span&gt;&lt;span style=&quot;background-color: initial;&quot;&gt;,&amp;nbsp;&lt;/span&gt;&lt;span style=&quot;background-color: initial;&quot;&gt;sobrenome:&amp;nbsp;&lt;/span&gt;&lt;span style=&quot;background-color: initial;&quot;&gt;String&lt;/span&gt;&lt;span style=&quot;background-color: initial;&quot;&gt;,&amp;nbsp;&lt;/span&gt;&lt;/p&gt;&lt;p style=&quot;margin: 0px 0px 0px 4px; line-height: 140%;&quot;&gt;&lt;span style=&quot;background-color: initial;&quot;&gt;origem:&amp;nbsp;&lt;/span&gt;&lt;span style=&quot;background-color: initial;&quot;&gt;String&lt;/span&gt;&lt;span style=&quot;background-color: initial;&quot;&gt;, destino:&amp;nbsp;&lt;/span&gt;&lt;span style=&quot;background-color: initial;&quot;&gt;String&lt;/span&gt;&lt;span style=&quot;background-color: initial;&quot;&gt;, horarioVoo:&amp;nbsp;&lt;/span&gt;&lt;span style=&quot;background-color: initial;&quot;&gt;LocalDateTime&lt;/span&gt;&lt;span style=&quot;background-color: initial;&quot;&gt;,&amp;nbsp;&lt;/span&gt;&lt;/p&gt;&lt;p style=&quot;margin: 0px 0px 0px 4px; line-height: 140%;&quot;&gt;&lt;span style=&quot;background-color: initial;&quot;&gt;assento:&amp;nbsp;&lt;/span&gt;&lt;span style=&quot;background-color: initial;&quot;&gt;String&lt;/span&gt;&lt;span style=&quot;background-color: initial;&quot;&gt;)&lt;/span&gt;&lt;/p&gt;&lt;div&gt;&lt;span style=&quot;background-color: initial;&quot;&gt;&lt;br&gt;&lt;/span&gt;&lt;/div&gt;" style="verticalAlign=top;align=left;overflow=fill;html=1;whiteSpace=wrap;spacingTop=4;" parent="1" vertex="1">
          <mxGeometry x="-4009" y="95" width="330" height="220" as="geometry" />
        </mxCell>
        <mxCell id="65q7ZS-yUtM_7gpTNHfP-4" value="&lt;font style=&quot;font-size: 25px;&quot;&gt;DAO&lt;/font&gt;" style="text;align=center;fontStyle=1;verticalAlign=middle;spacingLeft=3;spacingRight=3;strokeColor=none;rotatable=0;points=[[0,0.5],[1,0.5]];portConstraint=eastwest;html=1;" vertex="1" parent="1">
          <mxGeometry x="-2409" y="-306" width="110" height="40" as="geometry" />
        </mxCell>
        <mxCell id="65q7ZS-yUtM_7gpTNHfP-7" value="" style="endArrow=none;html=1;endSize=12;startArrow=diamondThin;startSize=14;startFill=0;edgeStyle=orthogonalEdgeStyle;align=left;verticalAlign=bottom;rounded=0;entryX=1;entryY=0.5;entryDx=0;entryDy=0;exitX=0;exitY=0.5;exitDx=0;exitDy=0;endFill=0;" edge="1" parent="1" source="hHe68IUiqHdVVkdZ2fqz-21" target="hHe68IUiqHdVVkdZ2fqz-17">
          <mxGeometry x="-0.678" y="-7" relative="1" as="geometry">
            <mxPoint x="-3028.5" y="411" as="sourcePoint" />
            <mxPoint x="-2929.5" y="370" as="targetPoint" />
            <mxPoint as="offset" />
          </mxGeometry>
        </mxCell>
        <mxCell id="65q7ZS-yUtM_7gpTNHfP-8" value="1..*" style="edgeLabel;html=1;align=center;verticalAlign=middle;resizable=0;points=[];" vertex="1" connectable="0" parent="65q7ZS-yUtM_7gpTNHfP-7">
          <mxGeometry x="0.5926" y="-2" relative="1" as="geometry">
            <mxPoint x="-25" y="-10" as="offset" />
          </mxGeometry>
        </mxCell>
        <mxCell id="65q7ZS-yUtM_7gpTNHfP-9" value="1..*" style="edgeLabel;html=1;align=center;verticalAlign=middle;resizable=0;points=[];" vertex="1" connectable="0" parent="65q7ZS-yUtM_7gpTNHfP-7">
          <mxGeometry x="-0.8387" y="1" relative="1" as="geometry">
            <mxPoint x="-2" y="-16" as="offset" />
          </mxGeometry>
        </mxCell>
        <mxCell id="65q7ZS-yUtM_7gpTNHfP-10" value="" style="shape=folder;fontStyle=1;spacingTop=10;tabWidth=145;tabHeight=40;tabPosition=left;html=1;whiteSpace=wrap;" vertex="1" parent="1">
          <mxGeometry x="-2044" y="-282.25" width="335" height="630" as="geometry" />
        </mxCell>
        <mxCell id="65q7ZS-yUtM_7gpTNHfP-12" value="&lt;p style=&quot;text-align: center; margin: 4px 0px 0px; line-height: 90%;&quot;&gt;&lt;b&gt;&amp;lt;&amp;lt;Enum&amp;gt;&amp;gt;&lt;/b&gt;&lt;/p&gt;&lt;p style=&quot;text-align: center; margin: 4px 0px 0px; line-height: 90%;&quot;&gt;&lt;b&gt;LetraAssento&lt;/b&gt;&lt;/p&gt;&lt;hr size=&quot;1&quot; style=&quot;border-style: solid; line-height: 140%;&quot;&gt;&lt;p style=&quot;margin: 0px 0px 0px 4px; line-height: 140%;&quot;&gt;A, B, C, D, E, F&lt;/p&gt;&lt;hr size=&quot;1&quot; style=&quot;border-style: solid; line-height: 140%;&quot;&gt;&lt;p style=&quot;margin: 0px 0px 0px 4px; line-height: 140%;&quot;&gt;+&amp;nbsp;&lt;span style=&quot;background-color: initial;&quot;&gt;isLetraValida(letra:&amp;nbsp;&lt;/span&gt;&lt;span style=&quot;background-color: initial;&quot;&gt;String&lt;/span&gt;&lt;span style=&quot;background-color: initial;&quot;&gt;):&amp;nbsp;&lt;/span&gt;&lt;span style=&quot;background-color: initial;&quot;&gt;boolean&lt;/span&gt;&lt;/p&gt;&lt;p style=&quot;margin: 0px 0px 0px 4px; line-height: 140%;&quot;&gt;+&amp;nbsp;&lt;span style=&quot;background-color: initial;&quot;&gt;fromString(letra:&amp;nbsp;&lt;/span&gt;&lt;span style=&quot;background-color: initial;&quot;&gt;String&lt;/span&gt;&lt;span style=&quot;background-color: initial;&quot;&gt;):&amp;nbsp;&lt;/span&gt;&lt;span style=&quot;background-color: initial;&quot;&gt;LetraAssento&lt;/span&gt;&lt;/p&gt;" style="verticalAlign=top;align=left;overflow=fill;html=1;whiteSpace=wrap;spacingTop=4;" vertex="1" parent="1">
          <mxGeometry x="-1991.5" y="-192.25" width="230" height="130" as="geometry" />
        </mxCell>
        <mxCell id="65q7ZS-yUtM_7gpTNHfP-13" value="&lt;font style=&quot;font-size: 25px;&quot;&gt;Enums&lt;/font&gt;" style="text;align=center;fontStyle=1;verticalAlign=middle;spacingLeft=3;spacingRight=3;strokeColor=none;rotatable=0;points=[[0,0.5],[1,0.5]];portConstraint=eastwest;html=1;" vertex="1" parent="1">
          <mxGeometry x="-2044" y="-282.25" width="145" height="40" as="geometry" />
        </mxCell>
        <mxCell id="65q7ZS-yUtM_7gpTNHfP-14" value="&lt;p style=&quot;text-align: center; margin: 4px 0px 0px; line-height: 90%;&quot;&gt;&lt;b&gt;&amp;lt;&amp;lt;Enum&amp;gt;&amp;gt;&lt;/b&gt;&lt;/p&gt;&lt;p style=&quot;text-align: center; margin: 4px 0px 0px; line-height: 90%;&quot;&gt;&lt;b&gt;StatusPassageiro&lt;/b&gt;&lt;/p&gt;&lt;hr size=&quot;1&quot; style=&quot;border-style: solid; line-height: 140%;&quot;&gt;&lt;p style=&quot;margin: 0px 0px 0px 4px; line-height: 140%;&quot;&gt;REGULAR = &quot;Regular&quot;&lt;/p&gt;&lt;p style=&quot;margin: 0px 0px 0px 4px; line-height: 140%;&quot;&gt;VIP = &quot;Vip&quot;&lt;/p&gt;&lt;p style=&quot;margin: 0px 0px 0px 4px; line-height: 140%;&quot;&gt;&lt;u&gt;- descricao:&lt;/u&gt; String&lt;/p&gt;&lt;hr size=&quot;1&quot; style=&quot;border-style: solid; line-height: 140%;&quot;&gt;&lt;p style=&quot;margin: 0px 0px 0px 4px; line-height: 140%;&quot;&gt;&lt;span style=&quot;background-color: initial;&quot;&gt;StatusPassageiro(descricao:&amp;nbsp;&lt;/span&gt;&lt;span style=&quot;background-color: initial;&quot;&gt;String&lt;/span&gt;&lt;span style=&quot;background-color: initial;&quot;&gt;&amp;nbsp;&lt;/span&gt;&lt;span style=&quot;background-color: initial;&quot;&gt;)&lt;br&gt;&lt;/span&gt;&lt;/p&gt;" style="verticalAlign=top;align=left;overflow=fill;html=1;whiteSpace=wrap;spacingTop=4;" vertex="1" parent="1">
          <mxGeometry x="-1991.5" y="-32.25" width="230" height="130" as="geometry" />
        </mxCell>
        <mxCell id="65q7ZS-yUtM_7gpTNHfP-15" value="&lt;p style=&quot;text-align: center; margin: 4px 0px 0px; line-height: 90%;&quot;&gt;&lt;b&gt;&amp;lt;&amp;lt;Enum&amp;gt;&amp;gt;&lt;/b&gt;&lt;/p&gt;&lt;p style=&quot;text-align: center; margin: 4px 0px 0px; line-height: 90%;&quot;&gt;&lt;b&gt;LetraAssento&lt;/b&gt;&lt;/p&gt;&lt;hr size=&quot;1&quot; style=&quot;border-style: solid; line-height: 140%;&quot;&gt;&lt;p style=&quot;margin: 0px 0px 0px 4px; line-height: 140%;&quot;&gt;PASSAGEM_ADQUIRIDA = &quot;Passagem adquirida&quot;&lt;/p&gt;&lt;p style=&quot;margin: 0px 0px 0px 4px; line-height: 140%;&quot;&gt;PASSAGEM_CANCELADA = &quot;Passagem cancelada&quot;&lt;/p&gt;&lt;p style=&quot;margin: 0px 0px 0px 4px; line-height: 140%;&quot;&gt;CHECK_IN_REALIZADO = &quot;Check-in realizado&quot;&lt;/p&gt;&lt;p style=&quot;margin: 0px 0px 0px 4px; line-height: 140%;&quot;&gt;EMBARQUE_REALIZADO = &quot;Embarque realizado&quot;&lt;/p&gt;&lt;p style=&quot;margin: 0px 0px 0px 4px; line-height: 140%;&quot;&gt;NO_SHOW = &quot;No-show&quot;&lt;/p&gt;&lt;p style=&quot;margin: 0px 0px 0px 4px; line-height: 140%;&quot;&gt;&lt;u&gt;- descricao:&lt;/u&gt;&amp;nbsp;String&lt;/p&gt;&lt;hr size=&quot;1&quot; style=&quot;border-style: solid; line-height: 140%;&quot;&gt;&lt;p style=&quot;margin: 0px 0px 0px 4px; line-height: 140%;&quot;&gt;StatusPassagem(descricao:&amp;nbsp;&lt;span style=&quot;background-color: initial;&quot;&gt;String&lt;/span&gt;&lt;span style=&quot;background-color: initial;&quot;&gt;)&lt;/span&gt;&lt;/p&gt;" style="verticalAlign=top;align=left;overflow=fill;html=1;whiteSpace=wrap;spacingTop=4;" vertex="1" parent="1">
          <mxGeometry x="-2019" y="117.75" width="290" height="190" as="geometry" />
        </mxCell>
        <mxCell id="65q7ZS-yUtM_7gpTNHfP-16" value="" style="shape=folder;fontStyle=1;spacingTop=10;tabWidth=130;tabHeight=43;tabPosition=left;html=1;whiteSpace=wrap;" vertex="1" parent="1">
          <mxGeometry x="-2444" y="83.5" width="350" height="302.5" as="geometry" />
        </mxCell>
        <mxCell id="65q7ZS-yUtM_7gpTNHfP-17" value="&lt;span style=&quot;font-size: 25px;&quot;&gt;Facade&lt;/span&gt;" style="text;align=center;fontStyle=1;verticalAlign=middle;spacingLeft=3;spacingRight=3;strokeColor=none;rotatable=0;points=[[0,0.5],[1,0.5]];portConstraint=eastwest;html=1;" vertex="1" parent="1">
          <mxGeometry x="-2444" y="86.75" width="130" height="40" as="geometry" />
        </mxCell>
        <mxCell id="65q7ZS-yUtM_7gpTNHfP-18" value="&lt;p style=&quot;margin: 4px 0px 0px; text-align: center; line-height: 140%;&quot;&gt;&lt;b&gt;SistemaFacade&lt;/b&gt;&lt;/p&gt;&lt;hr size=&quot;1&quot; style=&quot;border-style: solid; line-height: 140%;&quot;&gt;&lt;p style=&quot;margin: 0px 0px 0px 4px; line-height: 140%;&quot;&gt;&lt;span style=&quot;font-size: 12px;&quot;&gt;-&amp;nbsp;&lt;/span&gt;&lt;span style=&quot;background-color: initial;&quot;&gt;aeroportoManager:&amp;nbsp;&lt;/span&gt;&lt;span style=&quot;background-color: initial;&quot;&gt;AeroportoManager&lt;/span&gt;&lt;span style=&quot;background-color: initial;&quot;&gt;&amp;nbsp;&lt;/span&gt;&lt;br&gt;&lt;/p&gt;&lt;p style=&quot;margin: 0px 0px 0px 4px; line-height: 140%;&quot;&gt;- companhiaAereaManager:&amp;nbsp;&lt;span style=&quot;background-color: initial;&quot;&gt;CompanhiaAereaManager&lt;/span&gt;&lt;span style=&quot;background-color: initial;&quot;&gt;&amp;nbsp;&lt;/span&gt;&lt;/p&gt;&lt;p style=&quot;margin: 0px 0px 0px 4px; line-height: 140%;&quot;&gt;- vooManager:&amp;nbsp;&lt;span style=&quot;background-color: initial;&quot;&gt;VooManager&lt;/span&gt;&lt;span style=&quot;background-color: initial;&quot;&gt;&amp;nbsp;&lt;/span&gt;&lt;/p&gt;&lt;p style=&quot;margin: 0px 0px 0px 4px; line-height: 140%;&quot;&gt;- log:&amp;nbsp;&lt;span style=&quot;background-color: initial;&quot;&gt;ILog&lt;/span&gt;&lt;span style=&quot;background-color: initial;&quot;&gt;&amp;nbsp;&lt;/span&gt;&lt;/p&gt;&lt;hr size=&quot;1&quot; style=&quot;border-style: solid; line-height: 140%;&quot;&gt;&lt;p style=&quot;margin: 0px 0px 0px 4px; line-height: 140%;&quot;&gt;+&amp;nbsp;&lt;span style=&quot;background-color: initial;&quot;&gt;SistemaFacade()&lt;/span&gt;&lt;/p&gt;&lt;p style=&quot;margin: 0px 0px 0px 4px; line-height: 140%;&quot;&gt;&lt;span style=&quot;background-color: initial;&quot;&gt;+&amp;nbsp;&lt;/span&gt;&lt;span style=&quot;background-color: initial;&quot;&gt;cadastroBasico():&amp;nbsp;&lt;/span&gt;&lt;span style=&quot;background-color: initial;&quot;&gt;void&lt;/span&gt;&lt;/p&gt;&lt;p style=&quot;margin: 0px 0px 0px 4px; line-height: 140%;&quot;&gt;+ cenario1():&amp;nbsp;&lt;span style=&quot;background-color: initial;&quot;&gt;void&lt;/span&gt;&lt;/p&gt;&lt;p style=&quot;margin: 0px 0px 0px 4px; line-height: 140%;&quot;&gt;+ cenario2():&amp;nbsp;&lt;span style=&quot;background-color: initial;&quot;&gt;void&lt;/span&gt;&lt;/p&gt;&lt;p style=&quot;margin: 0px 0px 0px 4px; line-height: 140%;&quot;&gt;+ main(args:&amp;nbsp;&lt;span style=&quot;background-color: initial;&quot;&gt;String[]&lt;/span&gt;&lt;span style=&quot;background-color: initial;&quot;&gt;):&amp;nbsp;&lt;/span&gt;&lt;span style=&quot;background-color: initial;&quot;&gt;void&lt;/span&gt;&lt;/p&gt;&lt;div&gt;&lt;span style=&quot;background-color: initial;&quot;&gt;&lt;br&gt;&lt;/span&gt;&lt;/div&gt;" style="verticalAlign=top;align=left;overflow=fill;html=1;whiteSpace=wrap;spacingTop=4;" vertex="1" parent="1">
          <mxGeometry x="-2425.25" y="148.88" width="312.5" height="214.25" as="geometry" />
        </mxCell>
      </root>
    </mxGraphModel>
  </diagram>
</mxfile>
